<?xml version="1.0" encoding="UTF-8" standalone="no"?>
<!-- Created with Inkscape (http://www.inkscape.org/) -->

<svg
   xmlns:dc="http://purl.org/dc/elements/1.1/"
   xmlns:cc="http://creativecommons.org/ns#"
   xmlns:rdf="http://www.w3.org/1999/02/22-rdf-syntax-ns#"
   xmlns:svg="http://www.w3.org/2000/svg"
   xmlns="http://www.w3.org/2000/svg"
   xmlns:sodipodi="http://sodipodi.sourceforge.net/DTD/sodipodi-0.dtd"
   xmlns:inkscape="http://www.inkscape.org/namespaces/inkscape"
   version="1.1"
   id="svg2"
   xml:space="preserve"
   width="48"
   height="48"
   viewBox="0 0 47.999999 48"
   sodipodi:docname="iiasa_logo_white.svg"
   inkscape:version="0.92.5 (2060ec1f9f, 2020-04-08)"><metadata
     id="metadata8"><rdf:RDF><cc:Work
         rdf:about=""><dc:format>image/svg+xml</dc:format><dc:type
           rdf:resource="http://purl.org/dc/dcmitype/StillImage" /><dc:title></dc:title></cc:Work></rdf:RDF></metadata><defs
     id="defs6" /><sodipodi:namedview
     pagecolor="#ffffff"
     bordercolor="#666666"
     borderopacity="1"
     objecttolerance="10"
     gridtolerance="10"
     guidetolerance="10"
     inkscape:pageopacity="0"
     inkscape:pageshadow="2"
     inkscape:window-width="1818"
     inkscape:window-height="1006"
     id="namedview4"
     showgrid="false"
     inkscape:zoom="9.7779373"
     inkscape:cx="-5.7532415"
     inkscape:cy="26.521725"
     inkscape:window-x="102"
     inkscape:window-y="37"
     inkscape:window-maximized="0"
     inkscape:current-layer="g10" /><g
     id="g10"
     inkscape:groupmode="layer"
     inkscape:label="ink_ext_XXXXXX"
     transform="matrix(1.3333333,0,0,-1.3333333,0,48.000002)"><g
       id="g12"
       transform="matrix(0.10114575,0,0,0.10114791,-8.1084238,-20.187127)"
       style="fill:#00589d"><path
         d="m 258.16,553.641 c -67.597,0 -126.324,-38.164 -155.883,-94.075 l 311.703,0.079 c -29.539,55.832 -88.21,93.957 -155.82,93.996"
         style="fill:#00589d;fill-opacity:1;fill-rule:nonzero;stroke:none"
         id="path138"
         inkscape:connector-curvature="0" /><path
         d="m 434.207,384.391 c -0.48,13.019 -2.336,25.547 -5.469,37.648 L 102.391,459.566 C 89.4102,435.008 82.0195,407.027 82.0195,377.32 c 0,-15.3 1.9688,-30.203 5.6485,-44.414 l 163.496,-18.926 0.039,70.411 h 183.004"
         style="fill:#00589d;fill-opacity:1;fill-rule:nonzero;stroke:none"
         id="path140"
         inkscape:connector-curvature="0" /><path
         d="m 102.277,295.145 c 28.536,-53.918 84.203,-91.211 148.778,-93.711 v 93.75 l -148.778,-0.039"
         style="fill:#00589d;fill-opacity:1;fill-rule:nonzero;stroke:none"
         id="path142"
         inkscape:connector-curvature="0" /><path
         d="m 414.09,295.223 c 11.887,22.586 19.023,48.027 20.144,75.097 H 265.266 V 312.391 L 414.09,295.223 v 0"
         style="fill:#00589d;fill-opacity:1;fill-rule:nonzero;stroke:none"
         id="path144"
         inkscape:connector-curvature="0" /><path
         d="m 414.09,295.223 -148.824,-0.039 v -93.75 c 64.621,2.5 120.297,39.793 148.824,93.789"
         style="fill:#00589d;fill-opacity:1;fill-rule:nonzero;stroke:none"
         id="path146"
         inkscape:connector-curvature="0" /></g></g></svg>
